<svg width="24" height="24" viewBox="0 0 24 24" fill="none" xmlns="http://www.w3.org/2000/svg">
<path fill-rule="evenodd" clip-rule="evenodd" d="M14.661 2.62054C13.1358 2.18771 11.5281 2.13333 9.9771 2.46214C8.42614 2.79094 6.97875 3.49301 5.76038 4.50748C4.54201 5.52196 3.58941 6.81825 2.98513 8.28401C2.38085 9.74977 2.14313 11.3408 2.29257 12.9191C2.44201 14.4975 2.97409 16.0156 3.84271 17.342C4.71134 18.6683 5.89029 19.7627 7.2774 20.5305C8.66452 21.2983 10.2179 21.7163 11.8031 21.7482C13.3882 21.7801 14.9571 21.4249 16.374 20.7135C16.6395 20.5886 16.9432 20.5723 17.2205 20.6682C17.4978 20.764 17.7267 20.9644 17.8584 21.2265C17.9901 21.4887 18.0141 21.792 17.9254 22.0716C17.8367 22.3513 17.6422 22.5852 17.3835 22.7235C15.0494 23.8952 12.3968 24.2734 9.8282 23.8007C7.25964 23.3281 4.91541 22.0303 3.15131 20.1045C1.38721 18.1786 0.299549 15.7299 0.0534206 13.1298C-0.192708 10.5297 0.41613 7.92035 1.78753 5.6977C3.15892 3.47505 5.218 1.76048 7.65224 0.814233C10.0865 -0.132019 12.763 -0.258291 15.2755 0.454584C17.788 1.16746 19.9993 2.68055 21.5739 4.76422C23.1485 6.84789 24.0003 9.38836 24 12V13.875C24.0005 14.7685 23.7109 15.6381 23.1748 16.3528C22.6386 17.0676 21.8849 17.5889 21.0269 17.8384C20.1689 18.0879 19.2532 18.0521 18.4173 17.7363C17.5815 17.4206 16.8707 16.842 16.392 16.0875C15.44 17.1104 14.1608 17.7689 12.7751 17.9494C11.3894 18.13 9.98419 17.8212 8.80187 17.0763C7.61954 16.3315 6.73427 15.1973 6.2988 13.8695C5.86333 12.5417 5.90497 11.1036 6.41653 9.8032C6.92809 8.50283 7.87749 7.42179 9.10092 6.7466C10.3244 6.07141 11.7451 5.84442 13.118 6.1048C14.4909 6.36517 15.7299 7.09658 16.6212 8.17283C17.5124 9.24908 18.0001 10.6027 18 12V13.875C18 14.3723 18.1976 14.8492 18.5492 15.2009C18.9008 15.5525 19.3777 15.75 19.875 15.75C20.3723 15.75 20.8492 15.5525 21.2008 15.2009C21.5525 14.8492 21.75 14.3723 21.75 13.875V12C21.7499 9.87821 21.0577 7.81432 19.7783 6.12158C18.4989 4.42883 16.7023 3.19964 14.661 2.62054ZM15.75 12C15.75 11.0055 15.3549 10.0517 14.6517 9.34839C13.9484 8.64513 12.9946 8.25005 12 8.25005C11.0055 8.25005 10.0516 8.64513 9.34836 9.34839C8.6451 10.0517 8.25001 11.0055 8.25001 12C8.25001 12.9946 8.6451 13.9484 9.34836 14.6517C10.0516 15.355 11.0055 15.75 12 15.75C12.9946 15.75 13.9484 15.355 14.6517 14.6517C15.3549 13.9484 15.75 12.9946 15.75 12Z" fill="gray"/>
</svg>
