<svg width="24" height="24" viewBox="0 0 24 24" fill="none" xmlns="http://www.w3.org/2000/svg">
<path d="M8.01003 18.934C9.69141 19.9015 11.667 20.2251 13.5692 19.8446C15.4714 19.4641 17.1705 18.4053 18.3503 16.8655C19.5301 15.3256 20.1102 13.4096 19.9827 11.4739C19.8551 9.53822 19.0285 7.71484 17.6568 6.34315C16.2852 4.97146 14.4618 4.1449 12.5261 4.01733C10.5904 3.88976 8.67436 4.46986 7.13451 5.64966C5.59466 6.82947 4.53594 8.52859 4.15543 10.4308C3.77492 12.333 4.09853 14.3086 5.06604 15.99L5.0687 15.9944C5.13359 16.1073 5.16648 16.1642 5.18159 16.2184C5.19581 16.2691 5.19937 16.3144 5.19581 16.3677C5.185 16.4471 5.16409 16.5248 5.13359 16.5989L4.45093 18.6495L4.45004 18.6522C4.30604 19.0851 4.23404 19.3011 4.2847 19.4451C4.32915 19.5713 4.42959 19.67 4.55493 19.7153C4.69893 19.766 4.91404 19.6949 5.34515 19.5509L5.35048 19.5491L7.40025 18.8655C7.5167 18.8264 7.57625 18.8069 7.63314 18.8033C7.68313 18.7994 7.73341 18.8045 7.78159 18.8184C7.86044 18.8477 7.93585 18.8856 8.00648 18.9313L8.01003 18.934Z" stroke="gray" stroke-width="1.5" stroke-linecap="round" stroke-linejoin="round"/>
</svg>
