<svg width="24" height="24" viewBox="0 0 24 24" fill="none" xmlns="http://www.w3.org/2000/svg">
<path d="M12 13.5V18" stroke="gray"/>
<line x1="10" y1="18.5" x2="14" y2="18.5" stroke="gray"/>
<line x1="8" y1="20.5" x2="16" y2="20.5" stroke="gray"/>
<path d="M3.5 6C3.5 5.72386 3.72386 5.5 4 5.5H6.5V8.5H5C4.17157 8.5 3.5 7.82843 3.5 7V6Z" stroke="gray"/>
<path d="M20.5 6C20.5 5.72386 20.2761 5.5 20 5.5H17.5V8.5H19C19.8284 8.5 20.5 7.82843 20.5 7V6Z" stroke="gray"/>
<path d="M17.5 7.50004C17.5 10.8522 15.0006 13.5 12 13.5C8.99937 13.5 6.50001 10.8522 6.50001 7.50004C6.50001 7.04783 6.4845 6.64549 6.471 6.2955L6.47034 6.27823C6.45649 5.91884 6.44569 5.6264 6.45293 5.37494C6.46757 4.86588 6.55551 4.66133 6.70576 4.5288C6.89091 4.36549 7.27962 4.21108 8.16217 4.11739C9.02275 4.02603 10.2475 4 12 4C13.7525 4 14.9773 4.02603 15.8378 4.11739C16.7204 4.21108 17.1091 4.36549 17.2943 4.5288C17.4445 4.66133 17.5324 4.86588 17.5471 5.37494C17.5543 5.6264 17.5435 5.91884 17.5297 6.27823L17.529 6.29548C17.5155 6.64548 17.5 7.04782 17.5 7.50004Z" stroke="gray"/>
</svg>
