<svg width="24" height="24" viewBox="0 0 24 24" fill="none" xmlns="http://www.w3.org/2000/svg">
<path d="M9 9V6.2C9 5.08 9 4.52 9.218 4.092C9.41 3.715 9.715 3.41 10.092 3.218C10.52 3 11.08 3 12.2 3H17.8C18.92 3 19.48 3 19.908 3.218C20.2843 3.40974 20.5903 3.71569 20.782 4.092C21 4.52 21 5.08 21 6.2V11.8C21 12.92 21 13.48 20.782 13.908C20.5901 14.2842 20.2842 14.5901 19.908 14.782C19.48 15 18.92 15 17.803 15H15M9 9H6.2C5.08 9 4.52 9 4.092 9.218C3.71565 9.40969 3.40969 9.71565 3.218 10.092C3 10.52 3 11.08 3 12.2V17.8C3 18.92 3 19.48 3.218 19.908C3.40974 20.2843 3.71569 20.5903 4.092 20.782C4.519 21 5.079 21 6.197 21H11.804C12.921 21 13.48 21 13.908 20.782C14.2843 20.5903 14.5903 20.2843 14.782 19.908C15 19.48 15 18.921 15 17.803V15M9 9H11.8C12.92 9 13.48 9 13.908 9.218C14.2843 9.40974 14.5903 9.71569 14.782 10.092C15 10.519 15 11.079 15 12.197V15" stroke="gray" stroke-width="2" stroke-linecap="round" stroke-linejoin="round"/>
</svg>
