<svg width="24" height="24" viewBox="0 0 24 24" fill="none" xmlns="http://www.w3.org/2000/svg">
<path fill-rule="evenodd" clip-rule="evenodd" d="M13.0237 20.1595C13.2276 20.1595 13.4159 20.0501 13.5169 19.8729L17.6224 12.6664C18.1666 11.7112 18.395 10.6083 18.2749 9.51551L17.8416 5.57236C17.7645 4.87078 17.2137 4.31506 16.5129 4.23169L13.9152 3.92269C12.2004 3.7187 10.4618 3.89552 8.82312 4.44055C8.01387 4.70971 7.36568 5.32394 7.0534 6.11754L4.9625 11.4311C4.91138 11.561 4.87605 11.6966 4.85727 11.835C4.69869 13.0032 5.72136 13.9887 6.88291 13.7869L11.0741 13.059C12.398 12.829 13.5415 13.9974 13.2831 15.316L12.4666 19.4827C12.3979 19.8334 12.6664 20.1595 13.0237 20.1595ZM15.1161 20.7839C14.6877 21.5358 13.889 22 13.0237 22C11.5079 22 10.369 20.6163 10.6605 19.1288L11.4769 14.9621C11.4804 14.9443 11.4786 14.9334 11.4761 14.9255C11.4731 14.9159 11.4668 14.9046 11.4566 14.8941C11.4463 14.8836 11.4352 14.8772 11.4256 14.8739C11.4178 14.8713 11.407 14.8692 11.389 14.8723L7.19786 15.6003C4.80991 16.015 2.70749 13.9891 3.0335 11.5874C3.07211 11.303 3.14474 11.0243 3.24983 10.7572L5.34074 5.44361C5.85274 4.14247 6.91546 3.13543 8.24224 2.69413C10.1378 2.06366 12.149 1.85912 14.1327 2.09508L16.7303 2.40409C18.2814 2.58861 19.5004 3.81856 19.671 5.37132L20.1043 9.31447C20.2668 10.793 19.9578 12.2851 19.2216 13.5775L15.1161 20.7839Z" fill="#808080"/>
</svg>
