<svg width="24" height="24" viewBox="0 0 24 24" fill="none" xmlns="http://www.w3.org/2000/svg">
<path d="M4.392 17V5.72H11.512V6.824H5.672V10.728H11.176V11.832H5.672V15.896H11.512V17H4.392ZM13.5441 17V9.224H14.8081V10.552C15.0641 10.0613 15.4268 9.69333 15.8961 9.448C16.3655 9.20267 16.8935 9.08 17.4801 9.08C19.3255 9.08 20.2481 10.104 20.2481 12.152V17H18.9521V12.232C18.9521 11.5067 18.8081 10.9787 18.5201 10.648C18.2428 10.3067 17.7948 10.136 17.1761 10.136C16.4615 10.136 15.8908 10.36 15.4641 10.808C15.0481 11.2453 14.8401 11.832 14.8401 12.568V17H13.5441Z" fill="gray"/>
</svg>
