<svg width="24" height="24" viewBox="0 0 24 24" fill="none" xmlns="http://www.w3.org/2000/svg">
<path d="M9.5 6C9.5 4.61929 10.6193 3.5 12 3.5C13.3807 3.5 14.5 4.61929 14.5 6C14.5 6.27614 14.2761 6.5 14 6.5H10C9.72386 6.5 9.5 6.27614 9.5 6Z" stroke="gray"/>
<path d="M8 9L4.5 5.5" stroke="gray"/>
<line x1="6" y1="12.5" x2="3" y2="12.5" stroke="gray"/>
<line x1="18" y1="12.5" x2="21" y2="12.5" stroke="gray"/>
<path d="M7.5 17.5L4.5 20.5" stroke="gray"/>
<path d="M16 9L19.5 5.5" stroke="gray"/>
<path d="M16.5 17.5L19.5 20.5" stroke="gray"/>
<path d="M6.5 12C6.5 10.067 8.067 8.5 10 8.5H14C15.933 8.5 17.5 10.067 17.5 12V14C17.5 17.0376 15.0376 19.5 12 19.5C8.96243 19.5 6.5 17.0376 6.5 14V12Z" stroke="gray"/>
<path d="M12 19V11" stroke="gray"/>
</svg>
