<svg width="24" height="24" viewBox="0 0 24 24" fill="none" xmlns="http://www.w3.org/2000/svg">
<path d="M7.13731 13.5192L6.96973 13.4714L6.8087 13.538C5.30582 14.1602 4.27256 14.5517 3.57504 14.7365C3.22428 14.8294 2.99412 14.8599 2.84935 14.8555C2.80274 14.8541 2.77297 14.8494 2.75519 14.8452C2.74993 14.823 2.74342 14.7808 2.7441 14.7084C2.74554 14.5546 2.77848 14.338 2.84681 14.0387C2.91421 13.7435 3.00869 13.3979 3.12076 12.9903L3.1328 12.9465C3.24095 12.5533 3.36296 12.1096 3.48505 11.6213L3.53239 11.4319L3.43893 11.2606C2.72404 9.94994 2.48606 8.82635 2.55027 7.88751C2.61425 6.95196 2.98053 6.1636 3.53697 5.52053C4.66463 4.21731 6.57915 3.51172 8.26015 3.51172C11.6554 3.51172 14.2602 5.82533 14.2602 8.51172C14.2602 10.8432 13.277 12.2927 11.9413 13.0692C10.5784 13.8615 8.78344 13.9896 7.13731 13.5192ZM2.73274 14.8376C2.73285 14.8375 2.73427 14.838 2.73663 14.8396C2.7338 14.8384 2.73262 14.8376 2.73274 14.8376Z" stroke="gray"/>
<mask id="mask0_22_52" style="mask-type:alpha" maskUnits="userSpaceOnUse" x="9" y="6" width="14" height="14">
<path d="M15 6H23V20H9V15L16 14L15 6Z" fill="#D9D9D9"/>
</mask>
<g mask="url(#mask0_22_52)">
<path d="M16.6228 17.5075L16.7904 17.4596L16.9514 17.5263C18.4543 18.1485 19.4876 18.5399 20.1851 18.7247C20.5359 18.8177 20.766 18.8482 20.9108 18.8438C20.9574 18.8423 20.9872 18.8377 21.0049 18.8335C21.0102 18.8113 21.0167 18.7691 21.016 18.6967C21.0146 18.5428 20.9817 18.3263 20.9133 18.027C20.8459 17.7318 20.7514 17.3862 20.6394 16.9786L20.6273 16.9348C20.5192 16.5416 20.3972 16.0979 20.2751 15.6095L20.2277 15.4202L20.3212 15.2489C21.0361 13.9382 21.2741 12.8146 21.2099 11.8758C21.1459 10.9402 20.7796 10.1519 20.2232 9.50881C19.0955 8.20559 17.181 7.5 15.5 7.5C12.1047 7.5 9.49998 9.81362 9.49998 12.5C9.49998 14.8315 10.4832 16.2809 11.8189 17.0575C13.1817 17.8498 14.9767 17.9778 16.6228 17.5075ZM21.0274 18.8258C21.0273 18.8257 21.0259 18.8263 21.0235 18.8278C21.0263 18.8267 21.0275 18.8259 21.0274 18.8258Z" stroke="gray"/>
</g>
</svg>
