<svg width="24" height="24" viewBox="0 0 24 24" fill="none" xmlns="http://www.w3.org/2000/svg">
<path fill-rule="evenodd" clip-rule="evenodd" d="M10.1229 3.84049C9.91894 3.84049 9.73066 3.94992 9.6297 4.12714L5.5242 11.3336C4.97999 12.2888 4.75161 13.3917 4.8717 14.4845L5.30501 18.4276C5.3821 19.1292 5.93286 19.6849 6.63372 19.7683L9.23133 20.0773C10.9461 20.2813 12.6848 20.1045 14.3235 19.5595C15.1327 19.2903 15.7809 18.6761 16.0932 17.8825L18.1841 12.5689C18.2352 12.439 18.2705 12.3034 18.2893 12.165C18.4479 10.9968 17.4252 10.0113 16.2637 10.2131L12.0725 10.941C10.7486 11.171 9.60511 10.0026 9.86349 8.68398L10.6799 4.51727C10.7486 4.16664 10.4802 3.84049 10.1229 3.84049ZM8.03051 3.21609C8.45884 2.46425 9.2576 2.00001 10.1229 2C11.6387 1.99999 12.7776 3.38365 12.4861 4.87118L11.6696 9.03788C11.6661 9.05574 11.668 9.06664 11.6705 9.07447C11.6735 9.08411 11.6797 9.09542 11.69 9.10589C11.7002 9.11637 11.7114 9.12283 11.721 9.12606C11.7287 9.12869 11.7396 9.1308 11.7575 9.12769L15.9487 8.39975C18.3367 7.985 20.4391 10.0109 20.1131 12.4126C20.0745 12.697 20.0018 12.9757 19.8967 13.2428L17.8058 18.5564C17.2938 19.8575 16.2311 20.8646 14.9043 21.3059C13.0088 21.9363 10.9976 22.1409 9.01392 21.9049L6.41631 21.5959C4.86514 21.4114 3.64616 20.1814 3.47553 18.6287L3.04222 14.6855C2.87975 13.207 3.18873 11.7149 3.92502 10.4225L8.03051 3.21609Z" fill="#808080"/>
</svg>
