<?xml version="1.0" encoding="utf-8"?>
<!-- Uploaded to: SVG Repo, www.svgrepo.com, Generator: SVG Repo Mixer Tools -->
<svg fill="#000000" width="40px" height="40px" viewBox="0 0 32 32" version="1.1" xmlns="http://www.w3.org/2000/svg">
<title>hood</title>
<path d="M16.060 1.999v0c-7.327 3.442-13.417 13.468-14.967 20.947 4.477 0 7.75 1.426 10.113 3.933l0.654-0.715c-1.751-1.801-4.052-3.271-7.086-4.735 1.631-4.058 4.118-10.201 7.281-10.558 1.238-0.14 2.563 0.607 4.005 2.71 4.513-7.505 8.799 2.406 11.286 7.848-2.976 1.613-5.272 3.087-7.049 4.913l0.576 0.648c2.33-2.481 5.595-4.045 10.154-4.045-1.839-7.386-7.488-17.307-14.967-20.947zM14.129 19.128c0 0.785-1.050 1.218-2.345 0.966s-2.345-1.091-2.345-1.876c0-0.785 1.050-1.218 2.345-0.966s2.345 1.091 2.345 1.876zM17.798 19.128c0 0.785 1.050 1.218 2.345 0.966s2.345-1.091 2.345-1.876c0-0.785-1.050-1.218-2.345-0.966s-2.345 1.091-2.345 1.876z"></path>
</svg>