<svg width="24" height="24" viewBox="0 0 24 24" fill="none" xmlns="http://www.w3.org/2000/svg">
<path fill-rule="evenodd" clip-rule="evenodd" d="M2 9.27426C2 6.2944 4.70759 4 7.88571 4C9.52397 4 10.9655 4.74167 12 5.70133C13.0345 4.74167 14.476 4 16.1143 4C19.2924 4 22 6.2944 22 9.27426C22 11.3155 21.0984 13.1106 19.8493 14.6279C18.6024 16.1426 16.9714 17.4282 15.4097 18.4728C14.8132 18.8718 14.2097 19.2398 13.6575 19.5114C13.1389 19.7664 12.5426 20 12 20C11.4574 20 10.8611 19.7664 10.3425 19.5114C9.79026 19.2398 9.18681 18.8718 8.59032 18.4728C7.02863 17.4282 5.39757 16.1426 4.15065 14.6279C2.90158 13.1106 2 11.3155 2 9.27426ZM7.88571 5.65517C5.50943 5.65517 3.71429 7.34245 3.71429 9.27426C3.71429 10.8229 4.39519 12.2648 5.49268 13.598C6.59232 14.9339 8.07191 16.1125 9.56656 17.1122C10.1321 17.4905 10.6648 17.8124 11.1205 18.0365C11.6099 18.2771 11.8933 18.3448 12 18.3448C12.1067 18.3448 12.3901 18.2771 12.8795 18.0365C13.3352 17.8124 13.8679 17.4905 14.4334 17.1122C15.9281 16.1125 17.4077 14.9339 18.5073 13.598C19.6048 12.2648 20.2857 10.8229 20.2857 9.27426C20.2857 7.34245 18.4906 5.65517 16.1143 5.65517C14.7495 5.65517 13.4752 6.4424 12.6795 7.44157C12.5173 7.64531 12.2662 7.76471 12 7.76471C11.7338 7.76471 11.4827 7.64531 11.3205 7.44157C10.5248 6.4424 9.25046 5.65517 7.88571 5.65517Z" fill="#808080"/>
</svg>
