<svg width="24" height="24" viewBox="0 0 24 24" fill="none" xmlns="http://www.w3.org/2000/svg">
<path d="M7.51129 19.8007C9.40283 20.8892 11.6254 21.2532 13.7654 20.8251C15.9053 20.3971 17.8169 19.206 19.1441 17.4737C20.4714 15.7413 21.124 13.5857 20.9805 11.4081C20.837 9.2305 19.9071 7.1792 18.364 5.63605C16.8208 4.09289 14.7695 3.16301 12.5919 3.01949C10.4143 2.87597 8.25866 3.52859 6.52632 4.85587C4.79399 6.18315 3.60294 8.09466 3.17486 10.2346C2.74678 12.3746 3.11085 14.5972 4.19929 16.4887L4.20229 16.4937C4.27529 16.6207 4.31229 16.6847 4.32929 16.7457C4.34529 16.8027 4.34929 16.8537 4.34529 16.9137C4.33313 17.003 4.3096 17.0904 4.27529 17.1737L3.50729 19.4807L3.50629 19.4837C3.34429 19.9707 3.26329 20.2137 3.32029 20.3757C3.37029 20.5177 3.48329 20.6287 3.62429 20.6797C3.78629 20.7367 4.02829 20.6567 4.51329 20.4947L4.51929 20.4927L6.82529 19.7237C6.95629 19.6797 7.02329 19.6577 7.08729 19.6537C7.14352 19.6493 7.20009 19.6551 7.25429 19.6707C7.34299 19.7037 7.42783 19.7463 7.50729 19.7977L7.51129 19.8007Z" stroke="gray" stroke-width="2" stroke-linecap="round" stroke-linejoin="round"/>
</svg>
