<svg width="24" height="24" viewBox="0 0 24 24" fill="none" xmlns="http://www.w3.org/2000/svg">
<path d="M8.79995 11.2C7.73909 11.2 6.72167 10.7786 5.97152 10.0284C5.22138 9.27828 4.79995 8.26087 4.79995 7.2V4C4.79995 3.78783 4.88424 3.58434 5.03427 3.43431C5.1843 3.28428 5.38778 3.2 5.59995 3.2H6.39995C6.61212 3.2 6.81561 3.11571 6.96564 2.96568C7.11567 2.81565 7.19995 2.61217 7.19995 2.4C7.19995 2.18783 7.11567 1.98434 6.96564 1.83431C6.81561 1.68428 6.61212 1.6 6.39995 1.6H5.59995C4.96343 1.6 4.35298 1.85285 3.90289 2.30294C3.45281 2.75303 3.19995 3.36348 3.19995 4V7.2C3.20098 8.10379 3.42137 8.99382 3.84219 9.79366C4.26301 10.5935 4.87169 11.2792 5.61595 11.792C6.33101 12.4224 6.91092 13.1912 7.32066 14.0519C7.7304 14.9127 7.96148 15.8475 7.99995 16.8C7.99995 18.2852 8.58995 19.7096 9.64015 20.7598C10.6904 21.81 12.1147 22.4 13.6 22.4C15.0852 22.4 16.5095 21.81 17.5597 20.7598C18.61 19.7096 19.2 18.2852 19.2 16.8V15.888C19.9541 15.6933 20.6113 15.2302 21.0484 14.5856C21.4856 13.941 21.6726 13.1591 21.5744 12.3864C21.4763 11.6137 21.0997 10.9034 20.5153 10.3885C19.9309 9.87367 19.1788 9.58961 18.4 9.58961C17.6211 9.58961 16.869 9.87367 16.2846 10.3885C15.7002 10.9034 15.3236 11.6137 15.2255 12.3864C15.1273 13.1591 15.3143 13.941 15.7515 14.5856C16.1886 15.2302 16.8458 15.6933 17.6 15.888V16.8C17.6 17.8609 17.1785 18.8783 16.4284 19.6284C15.6782 20.3786 14.6608 20.8 13.6 20.8C12.5391 20.8 11.5217 20.3786 10.7715 19.6284C10.0214 18.8783 9.59995 17.8609 9.59995 16.8C9.64045 15.8463 9.87402 14.9108 10.2865 14.05C10.6991 13.1892 11.282 12.421 12 11.792C12.7413 11.2775 13.3468 10.5909 13.7648 9.79121C14.1828 8.99148 14.4007 8.10237 14.4 7.2V4C14.4 3.36348 14.1471 2.75303 13.697 2.30294C13.2469 1.85285 12.6365 1.6 12 1.6H11.2C10.9878 1.6 10.7843 1.68428 10.6343 1.83431C10.4842 1.98434 10.4 2.18783 10.4 2.4C10.4 2.61217 10.4842 2.81565 10.6343 2.96568C10.7843 3.11571 10.9878 3.2 11.2 3.2H12C12.2121 3.2 12.4156 3.28428 12.5656 3.43431C12.7157 3.58434 12.8 3.78783 12.8 4V7.2C12.8 7.72529 12.6965 8.24543 12.4955 8.73073C12.2945 9.21603 11.9998 9.65699 11.6284 10.0284C11.2569 10.3999 10.816 10.6945 10.3307 10.8955C9.84538 11.0965 9.32524 11.2 8.79995 11.2ZM18.4 14.4C17.9756 14.4 17.5686 14.2314 17.2686 13.9314C16.9685 13.6313 16.8 13.2243 16.8 12.8C16.8 12.3757 16.9685 11.9687 17.2686 11.6686C17.5686 11.3686 17.9756 11.2 18.4 11.2C18.8243 11.2 19.2313 11.3686 19.5313 11.6686C19.8314 11.9687 20 12.3757 20 12.8C20 13.2243 19.8314 13.6313 19.5313 13.9314C19.2313 14.2314 18.8243 14.4 18.4 14.4Z" fill="gray"/>
</svg>
