<svg width="24" height="24" viewBox="0 0 24 24" fill="none" xmlns="http://www.w3.org/2000/svg">
<path d="M3.64645 17.3536C3.55268 17.2598 3.5 17.1326 3.5 17C3.5 16.8674 3.55268 16.7402 3.64645 16.6464C3.74021 16.5527 3.86739 16.5 4 16.5H20C20.1326 16.5 20.2598 16.5527 20.3536 16.6464C20.4473 16.7402 20.5 16.8674 20.5 17C20.5 17.1326 20.4473 17.2598 20.3536 17.3536C20.2598 17.4473 20.1326 17.5 20 17.5H4C3.86739 17.5 3.74021 17.4473 3.64645 17.3536ZM8 5.5C8.33265 5.5 8.69545 5.70256 8.99797 6.15635C9.2981 6.60654 9.5 7.25705 9.5 8C9.5 8.74295 9.2981 9.39346 8.99797 9.84365C8.69545 10.2974 8.33265 10.5 8 10.5C7.66735 10.5 7.30455 10.2974 7.00203 9.84365C6.7019 9.39346 6.5 8.74295 6.5 8C6.5 7.25705 6.7019 6.60654 7.00203 6.15635C7.30455 5.70256 7.66735 5.5 8 5.5ZM16 5.5C16.3326 5.5 16.6955 5.70256 16.998 6.15635C17.2981 6.60654 17.5 7.25705 17.5 8C17.5 8.74295 17.2981 9.39346 16.998 9.84365C16.6955 10.2974 16.3326 10.5 16 10.5C15.6674 10.5 15.3045 10.2974 15.002 9.84365C14.7019 9.39346 14.5 8.74295 14.5 8C14.5 7.25705 14.7019 6.60654 15.002 6.15635C15.3045 5.70256 15.6674 5.5 16 5.5Z" fill="gray" stroke="gray"/>
</svg>
