<svg width="24" height="24" viewBox="0 0 24 24" fill="none" xmlns="http://www.w3.org/2000/svg">
<path fill-rule="evenodd" clip-rule="evenodd" d="M15.493 6.93497C15.6428 7.06575 15.7346 7.25066 15.7481 7.44906C15.7616 7.64747 15.6957 7.84311 15.565 7.99297L7.708 16.993C7.6376 17.0736 7.55076 17.1383 7.4533 17.1825C7.35585 17.2268 7.25004 17.2497 7.143 17.2497C7.03595 17.2497 6.93015 17.2268 6.83269 17.1825C6.73524 17.1383 6.6484 17.0736 6.578 16.993L3.435 13.393C3.30892 13.2425 3.24687 13.0486 3.26216 12.8529C3.27745 12.6572 3.36887 12.4753 3.51678 12.3462C3.6647 12.2171 3.85732 12.1512 4.0533 12.1626C4.24928 12.1739 4.43299 12.2617 4.565 12.407L7.143 15.36L14.435 7.00697C14.5658 6.85716 14.7507 6.76542 14.9491 6.75192C15.1475 6.73841 15.3431 6.80426 15.493 6.93497ZM20.518 7.01997C20.818 7.30497 20.829 7.77997 20.543 8.07997L11.972 17.08C11.8971 17.1586 11.8061 17.22 11.7052 17.26C11.6043 17.3 11.4958 17.3176 11.3875 17.3116C11.2791 17.3057 11.1733 17.2762 11.0774 17.2253C10.9815 17.1745 10.8977 17.1034 10.832 17.017L10.403 16.454C10.2906 16.3075 10.2362 16.1247 10.2502 15.9406C10.2643 15.7565 10.3457 15.584 10.4789 15.4562C10.6122 15.3284 10.7879 15.2542 10.9724 15.2479C11.1569 15.2416 11.3373 15.3036 11.479 15.422L19.457 7.04497C19.5941 6.90102 19.7828 6.81741 19.9816 6.81254C20.1804 6.80766 20.373 6.88192 20.517 7.01897" fill="gray"/>
</svg>
