<svg width="24" height="24" viewBox="0 0 24 24" fill="none" xmlns="http://www.w3.org/2000/svg">
<path d="M4.392 17V5.72H8.856C10.072 5.72 11 6.01333 11.64 6.6C12.2907 7.18667 12.616 8.024 12.616 9.112C12.616 10.1893 12.2907 11.0267 11.64 11.624C11 12.2107 10.072 12.504 8.856 12.504H5.704V17H4.392ZM5.704 11.4H8.696C10.4453 11.4 11.32 10.6373 11.32 9.112C11.32 7.576 10.4453 6.808 8.696 6.808H5.704V11.4ZM15.317 19.88L16.645 16.872L13.365 9.224H14.773L17.349 15.528L19.941 9.224H21.301L16.677 19.88H15.317Z" fill="gray"/>
</svg>
